<svg width="21" height="15" viewBox="0 0 21 15" fill="none" xmlns="http://www.w3.org/2000/svg">
<path d="M21 0H0V14.419H21V0Z" fill="#0052B4"/>
<path d="M10.5 3.15399L10.716 3.81799H11.416L10.851 4.22798L11.067 4.89198L10.502 4.48199L9.93701 4.89198L10.153 4.22798L9.58801 3.81799H10.288L10.5 3.15399Z" fill="#FFDA44"/>
<path d="M7.701 4.34198L8.323 4.65898L8.817 4.16498L8.70799 4.85399L9.33 5.17099L8.64099 5.27998L8.532 5.96898L8.215 5.34698L7.526 5.45598L8.02 4.96199L7.701 4.34198Z" fill="#FFDA44"/>
<path d="M6.54498 7.21001L7.20898 6.994V6.29401L7.61899 6.85899L8.28299 6.64301L7.87299 7.20799L8.28299 7.77299L7.61899 7.55701L7.20898 8.12199V7.422L6.54498 7.21001Z" fill="#FFDA44"/>
<path d="M7.70103 10.077L8.01802 9.45502L7.52502 8.961L8.21404 9.07001L8.53102 8.448L8.64003 9.13699L9.32903 9.246L8.70703 9.56302L8.81602 10.252L8.32202 9.758L7.70103 10.077Z" fill="#FFDA44"/>
<path d="M10.5 11.265L10.284 10.601H9.58398L10.149 10.191L9.93298 9.52698L10.498 9.93698L11.063 9.52698L10.847 10.191L11.412 10.601H10.712L10.5 11.265Z" fill="#FFDA44"/>
<path d="M13.299 10.077L12.677 9.76001L12.183 10.254L12.292 9.564L11.67 9.24701L12.359 9.138L12.468 8.44901L12.785 9.07101L13.474 8.96201L12.98 9.45599L13.299 10.077Z" fill="#FFDA44"/>
<path d="M14.46 7.21001L13.796 7.42599V8.12601L13.386 7.561L12.722 7.77699L13.132 7.21201L12.722 6.647L13.386 6.86301L13.796 6.298V6.998L14.46 7.21001Z" fill="#FFDA44"/>
<path d="M13.299 4.34198L12.982 4.96399L13.476 5.45799L12.786 5.34898L12.469 5.97098L12.36 5.28198L11.671 5.17299L12.293 4.85599L12.184 4.16699L12.678 4.66098L13.299 4.34198Z" fill="#FFDA44"/>
</svg>
